<svg width="170" height="330" viewBox="0 0 170 330" xmlns="http://www.w3.org/2000/svg">
  <rect x="2" y="2" width="166" height="326" rx="6" fill="#5a3a22"/>
  <rect x="10" y="10" width="150" height="310" fill="#3a2616"/>
  <!-- shelves -->
  <g fill="#5a3a22">
    <rect x="10" y="86" width="150" height="10"/>
    <rect x="10" y="166" width="150" height="10"/>
    <rect x="10" y="246" width="150" height="10"/>
  </g>
  <!-- row 1 books -->
  <g>
    <rect x="20" y="28" width="16" height="58" fill="#8c3b3b"/>
    <rect x="38" y="22" width="14" height="64" fill="#3b6e8c"/>
    <rect x="54" y="30" width="18" height="56" fill="#c79a3a"/>
    <rect x="74" y="24" width="14" height="62" fill="#4a8c5a"/>
    <rect x="90" y="30" width="16" height="56" fill="#7a4a8c"/>
    <rect x="108" y="26" width="14" height="60" fill="#8c5a3b"/>
    <rect x="124" y="30" width="16" height="56" fill="#3b8c8c"/>
  </g>
  <!-- row 2 books, one juts out (the clue, page 21) -->
  <g>
    <rect x="20" y="110" width="16" height="56" fill="#4a8c5a"/>
    <rect x="38" y="106" width="16" height="60" fill="#8c3b3b"/>
    <rect x="58" y="104" width="40" height="20" fill="#d8c27a" stroke="#a8893a" stroke-width="2"/>
    <rect x="58" y="124" width="40" height="42" fill="#c79a3a"/>
    <text x="78" y="120" font-family="Georgia, serif" font-size="13" fill="#5a3a10" text-anchor="middle">21</text>
    <rect x="100" y="108" width="14" height="58" fill="#3b6e8c"/>
    <rect x="116" y="110" width="16" height="56" fill="#7a4a8c"/>
    <rect x="134" y="112" width="14" height="54" fill="#8c5a3b"/>
  </g>
  <!-- row 3 books -->
  <g>
    <rect x="20" y="190" width="14" height="56" fill="#7a4a8c"/>
    <rect x="36" y="186" width="16" height="60" fill="#c79a3a"/>
    <rect x="54" y="192" width="14" height="54" fill="#8c3b3b"/>
    <rect x="70" y="188" width="16" height="58" fill="#3b8c8c"/>
    <rect x="88" y="192" width="14" height="54" fill="#4a8c5a"/>
    <rect x="104" y="186" width="16" height="60" fill="#3b6e8c"/>
    <rect x="122" y="190" width="18" height="56" fill="#8c5a3b"/>
  </g>
  <!-- bottom curios -->
  <g>
    <rect x="28" y="272" width="40" height="40" fill="#2a1c10"/>
    <circle cx="110" cy="296" r="18" fill="#5a6e3a"/>
  </g>
</svg>
