<svg width="260" height="180" viewBox="0 0 260 180" xmlns="http://www.w3.org/2000/svg">
  <rect x="2" y="2" width="256" height="176" rx="8" fill="#caa23e"/>
  <rect x="12" y="12" width="236" height="156" rx="4" fill="#0e1430"/>
  <!-- constellation -->
  <g stroke="#5a6aa0" stroke-width="2" opacity="0.8">
    <line x1="40" y1="60" x2="90" y2="40"/>
    <line x1="90" y1="40" x2="140" y2="70"/>
    <line x1="140" y1="70" x2="190" y2="50"/>
    <line x1="140" y1="70" x2="160" y2="120"/>
    <line x1="160" y1="120" x2="110" y2="135"/>
    <line x1="190" y1="50" x2="220" y2="95"/>
  </g>
  <g fill="#eef2ff">
    <circle cx="40" cy="60" r="4"/>
    <circle cx="90" cy="40" r="5"/>
    <circle cx="140" cy="70" r="4"/>
    <circle cx="190" cy="50" r="5"/>
    <circle cx="160" cy="120" r="4"/>
    <circle cx="110" cy="135" r="4"/>
    <circle cx="220" cy="95" r="5"/>
  </g>
  <g fill="#9aa6d6" opacity="0.7">
    <circle cx="60" cy="110" r="1.6"/>
    <circle cx="80" cy="90" r="1.6"/>
    <circle cx="200" cy="140" r="1.6"/>
    <circle cx="230" cy="40" r="1.6"/>
  </g>
</svg>
